<svg xmlns="http://www.w3.org/2000/svg" width="278" height="26" fill="none"><g clip-path="url(#a)"><path fill="#17D1C6" d="M16.757 8.946h-6.598L8.09 5.396h10.764L21.957 0H4.177C3.03 0 1.995.615 1.408 1.594a3.053 3.053 0 0 0 0 3.159l11.35 19.458c.895 1.51 2.852 2.013 4.39 1.118a3.38 3.38 0 0 0 1.146-1.118l.363-.643-5.2-8.974 3.299-5.648Z"/><path fill="#17D1C6" d="M29.673 1.594A3.194 3.194 0 0 0 26.905 0h-.782l-8.527 14.621 3.13 5.396 8.92-15.292a3.07 3.07 0 0 0 .027-3.131Z"/><path fill="#fff" d="M126.796 15.097a.386.386 0 0 0-.364.28c-.699 2.264-2.097 3.774-4.221 3.774-2.796 0-4.921-2.684-4.921-6.263 0-3.69 2.013-6.262 4.921-6.262 2.18 0 3.55 1.454 4.249 3.746.056.168.196.28.364.28h4.92a.336.336 0 0 0 .336-.42c-1.091-5.62-5.452-7.716-9.869-7.716-5.033 0-10.428 2.712-10.428 10.344 0 7.633 5.395 10.344 10.428 10.344 4.417 0 8.778-2.096 9.869-7.716.027-.223-.112-.42-.336-.42l-4.948.029ZM108.009 3.131h-4.697a.382.382 0 0 0-.392.392v18.73c0 .224.168.392.392.392h4.697a.382.382 0 0 0 .391-.391V3.522a.421.421 0 0 0-.391-.39ZM49.662 6.458V3.522a.382.382 0 0 0-.391-.39H37.753a.382.382 0 0 0-.392.39v18.732c0 .223.168.391.392.391h4.697a.382.382 0 0 0 .39-.391v-7.297c0-.224.169-.392.392-.392h6.011a.382.382 0 0 0 .391-.39v-2.936a.382.382 0 0 0-.391-.392h-6.01a.382.382 0 0 1-.392-.391V7.269c0-.224.168-.392.391-.392h6.011c.224-.028.42-.195.42-.419ZM85.699 3.55v2.936c0 .224.168.391.391.391h3.188c.223 0 .39.168.39.392v15.04a.37.37 0 0 0 .364.364h4.78a.37.37 0 0 0 .364-.363V7.269c0-.224.168-.392.392-.392h3.187a.382.382 0 0 0 .391-.391V3.551a.382.382 0 0 0-.391-.392H86.09c-.223-.028-.391.168-.391.392ZM65.626 19.346v2.936a.382.382 0 0 1-.392.391H53.716a.382.382 0 0 1-.391-.391V3.55c0-.224.167-.392.391-.392h4.697c.224 0 .391.168.391.392v15.013c0 .223.168.39.392.39h6.01c.224 0 .42.169.42.392Zm19.29 2.964L79.604 3.355a.301.301 0 0 0-.28-.224h-5.786a.272.272 0 0 0-.28.224L67.946 22.31c-.056.195.084.363.28.363h5.004c.14 0 .252-.084.28-.224l.503-2.404a.598.598 0 0 1 .587-.475h3.579c.28 0 .53.195.587.475l.503 2.404c.028.14.14.224.28.224h5.004c.28 0 .42-.196.363-.363Zm-9.869-6.57c-.195 0-.307-.168-.28-.336.392-1.817 1.538-7.352 1.538-7.352.028-.084.056-.168.14-.168.084 0 .14.056.14.168 0 0 1.23 5.815 1.538 7.352a.295.295 0 0 1-.28.336h-2.796Zm69.641 7.52c-5.032 0-10.428-2.712-10.428-10.344s5.396-10.344 10.428-10.344c5.06 0 10.456 2.712 10.456 10.344 0 7.604-5.396 10.344-10.456 10.344Zm0-16.634c-2.907 0-4.92 2.572-4.92 6.262 0 3.579 2.125 6.263 4.92 6.263 2.824 0 4.949-2.684 4.949-6.263 0-3.662-2.041-6.262-4.949-6.262Zm23.037-3.104-.028 9.003c0 .111-.14.14-.196.056l-5.116-9.226a.389.389 0 0 0-.336-.196h-3.187a.382.382 0 0 0-.391.391v18.76c0 .223.168.391.391.391h4.054a.383.383 0 0 0 .392-.391v-9.086c0-.112.139-.14.195-.056l5.088 9.337a.389.389 0 0 0 .336.196h3.271a.382.382 0 0 0 .391-.391V3.55a.382.382 0 0 0-.391-.39h-4.054c-.252-.029-.419.139-.419.362ZM223.89 18.76c-.028-.029 0-.085.028-.085h.196c1.733-.168 3.187-1.314 3.187-3.299 0-2.292-1.845-3.354-3.97-3.354h-9.952a.25.25 0 0 0-.252.251v10.204c0 .14.112.252.252.252h3.187a.25.25 0 0 0 .251-.252v-3.27a.25.25 0 0 1 .252-.252h2.069a1 1 0 0 1 .755.335l2.935 3.327.168.084h4.193c.224 0 .336-.252.168-.42l-3.467-3.522Zm-1.342-2.182h-5.507a.25.25 0 0 1-.252-.251v-1.538a.25.25 0 0 1 .252-.251h5.424c.782 0 1.286.391 1.286.978 0 .699-.476 1.062-1.203 1.062Zm41.517-4.557h-3.187a.25.25 0 0 0-.252.252v6.766c0 .14.112.251.252.251h3.187a.25.25 0 0 0 .251-.251v-6.766c-.028-.14-.139-.252-.251-.252Zm0 8.695h-3.187a.25.25 0 0 0-.252.252v1.51c0 .14.112.251.252.251h3.187a.25.25 0 0 0 .251-.252v-1.51c-.028-.14-.139-.25-.251-.25Zm13.084 1.677-4.082-5.423a.299.299 0 0 1 .028-.392l3.858-4.249c.112-.112.028-.308-.14-.308h-3.355a.252.252 0 0 0-.223.112l-3.719 4.11c-.028 0-.028.028-.056.028h-.139a.06.06 0 0 1-.056-.056v-3.942a.22.22 0 0 0-.224-.224h-3.047a.24.24 0 0 0-.224.224v10.232c0 .112.084.196.196.196h3.103a.191.191 0 0 0 .196-.196v-1.9c0-.085.028-.169.084-.224l1.369-1.454s0-.028.028-.028h.196c.028 0 .028.028.028.028l2.74 3.662c.056.084.14.14.251.14h3.076c.112-.056.195-.224.112-.335Zm-44.872-7.939h3.104a.25.25 0 0 0 .251-.252v-1.957a.25.25 0 0 0-.251-.251h-6.43a.25.25 0 0 0-.252.251V22.45c0 .14.112.251.252.251h6.43a.25.25 0 0 0 .251-.251v-1.957a.25.25 0 0 0-.251-.252h-3.132a.25.25 0 0 1-.251-.252v-1.258a.25.25 0 0 1 .251-.251h3.104a.25.25 0 0 0 .251-.252v-1.901a.25.25 0 0 0-.251-.252h-3.104a.25.25 0 0 1-.251-.251v-1.118c0-.112.14-.252.279-.252Zm8.36 0h3.103a.25.25 0 0 0 .251-.252v-1.957a.25.25 0 0 0-.251-.251h-6.43a.25.25 0 0 0-.252.251V22.45c0 .14.112.251.252.251h6.43a.25.25 0 0 0 .251-.251v-1.957a.25.25 0 0 0-.251-.252h-3.131a.25.25 0 0 1-.252-.252v-1.258a.25.25 0 0 1 .252-.251h3.103a.25.25 0 0 0 .251-.252v-1.901a.25.25 0 0 0-.251-.252h-3.103a.25.25 0 0 1-.252-.251v-1.118c0-.112.14-.252.28-.252Zm-32.291 0h3.104a.25.25 0 0 0 .251-.252v-1.957a.25.25 0 0 0-.251-.251h-6.431a.25.25 0 0 0-.251.251V22.45c0 .14.112.251.251.251h2.824a.25.25 0 0 0 .252-.251v-3.72a.25.25 0 0 1 .251-.251h3.104a.25.25 0 0 0 .251-.252v-1.901a.25.25 0 0 0-.251-.252h-3.104a.25.25 0 0 1-.251-.251v-1.118c0-.112.112-.252.251-.252Zm46.94-2.433h-9.617a.25.25 0 0 0-.252.252v10.204c0 .14.112.252.252.252h3.187a.25.25 0 0 0 .252-.252v-3.382c0-.056.055-.112.111-.112h6.095c2.432 0 4.305-1.286 4.305-3.523-.028-2.264-1.873-3.439-4.333-3.439Zm-.447 4.557h-5.508a.25.25 0 0 1-.251-.251v-1.538a.25.25 0 0 1 .251-.251h5.424c.783 0 1.286.391 1.286.978 0 .699-.475 1.062-1.202 1.062Zm-69.781 6.067v-9.757h1.733v3.663h.084c.084-.168.224-.364.364-.56.167-.195.391-.363.671-.53.279-.14.615-.224 1.062-.224.559 0 1.062.14 1.538.447.447.28.81.699 1.09 1.286.28.559.391 1.258.391 2.069 0 .81-.139 1.481-.391 2.04-.252.56-.615.98-1.09 1.287a2.745 2.745 0 0 1-1.538.447c-.419 0-.755-.056-1.034-.224a2.1 2.1 0 0 1-.671-.503 2.94 2.94 0 0 1-.392-.56h-.112v1.147h-1.705v-.028Zm1.705-3.662c0 .475.056.894.196 1.23.14.363.336.643.587.839.252.195.559.307.923.307.391 0 .699-.112.95-.307.252-.196.448-.476.587-.84.14-.363.196-.754.196-1.23 0-.447-.056-.866-.196-1.201a2.052 2.052 0 0 0-.587-.84 1.546 1.546 0 0 0-.95-.307c-.364 0-.671.084-.951.28a1.975 1.975 0 0 0-.587.81 4.278 4.278 0 0 0-.168 1.259Zm7.493 6.402c-.224 0-.447-.028-.643-.056s-.364-.084-.475-.112l.391-1.342c.252.084.475.112.671.112a.784.784 0 0 0 .531-.196c.14-.111.28-.307.392-.587l.139-.391-2.656-7.465h1.818l1.677 5.536h.084l1.705-5.536h1.846l-2.936 8.22c-.14.391-.307.727-.531 1.006-.224.28-.503.503-.839.643-.335.112-.699.168-1.174.168Z"/></g><defs><clipPath id="a"><path fill="#fff" d="M.71 0h276.495v26H.71z"/></clipPath></defs></svg>